<svg xmlns="http://www.w3.org/2000/svg" width="32.926" height="44.607" viewBox="0 0 32.926 44.607"><defs><style>.a{fill:#fff;}</style></defs><g transform="translate(0 0)"><path class="a" d="M106.15,107.973a7.9,7.9,0,1,0,7.9,7.9A7.913,7.913,0,0,0,106.15,107.973Zm0,0" transform="translate(-89.686 -98.566)"/><path class="a" d="M32.927,22.66l-2.4-5.349,2.4-5.349L27.844,9.043,26.639,3.306l-5.828.627L16.464,0,12.117,3.933,6.289,3.306,5.084,9.043,0,11.961l2.4,5.349L0,22.66l5.083,2.919.653,3.108L.311,40.216l5.663.074L9.64,44.607l5.334-11.334,1.49,1.348,1.49-1.348,5.334,11.334,3.666-4.316,5.663-.074-5.426-11.53.653-3.108ZM16.464,27.828A10.517,10.517,0,1,1,26.981,17.311,10.529,10.529,0,0,1,16.464,27.828Zm0,0"/></g></svg>