<svg xmlns="http://www.w3.org/2000/svg" width="43.376" height="44" viewBox="0 0 43.376 44"><defs><style>.a{fill:#fff;}</style></defs><g transform="translate(-0.195 0)"><path class="a" d="M14.277,12.378l2.345,1.379a3.833,3.833,0,0,1,2-.88L35.2,10.841a.772.772,0,1,1,.188,1.532L18.815,14.409a2.292,2.292,0,0,0-.717.217L35.286,24.756,56.3,12.377,35.286,0Zm0,0" transform="translate(-12.724 0)"/><path class="a" d="M87.229,189.962l-15.034-8.856v8.029c0,2.123,1.836,4.187,5.036,5.663a27.354,27.354,0,0,0,20.779,0c3.2-1.476,5.036-3.54,5.036-5.663v-8.029l-15.033,8.856a.772.772,0,0,1-.784,0Zm0,0" transform="translate(-65.058 -163.646)"/><path class="a" d="M4.823,360.875,3.28,352.391.2,362.417Zm0,0" transform="translate(0 -318.418)"/><path class="a" d="M12.891,160.605a2.306,2.306,0,0,0-1.543-2.172V145.651a2.345,2.345,0,0,1,1.311-2.079l-1.47-.868a3.867,3.867,0,0,0-.96,1.225,3.819,3.819,0,0,0-.424,1.723v12.783a2.31,2.31,0,1,0,3.085,2.172Zm0,0" transform="translate(-7.297 -128.946)"/></g></svg>