<svg xmlns="http://www.w3.org/2000/svg" width="37.434" height="37.433" viewBox="0 0 37.434 37.433"><defs><style>.a{fill:#fff;}</style></defs><g transform="translate(-0.001 0)"><path class="a" d="M307.751,148.031H316l-1.446-6.94a1.1,1.1,0,0,0-1.074-.873h-12.7Zm0,0" transform="translate(-278.789 -129.967)"/><path class="a" d="M18.214,140.215H5.532a1.1,1.1,0,0,0-1.074.873l-1.446,6.94h8.173Zm0,0" transform="translate(-2.791 -129.964)"/><path class="a" d="M242.1,224.941a1.1,1.1,0,1,0,1.1,1.1A1.1,1.1,0,0,0,242.1,224.941Zm0,0" transform="translate(-223.378 -208.495)"/><path class="a" d="M240.434,428.992h2.193v6.068h-2.193Zm0,0" transform="translate(-222.854 -397.627)"/><path class="a" d="M28.471,20.258a1.1,1.1,0,0,1-.818-.367l-7.837-8.786V5.483H24.8a.731.731,0,0,0,.627-1.106l-.977-1.635.977-1.635A.731.731,0,0,0,24.8,0H18.718a1.1,1.1,0,0,0-1.1,1.1v9.991L9.7,19.894a1.1,1.1,0,0,1-.815.363H0V36.336a1.1,1.1,0,0,0,1.1,1.1H15.387V30.268a1.1,1.1,0,0,1,1.1-1.1H20.87a1.1,1.1,0,0,1,1.1,1.1v7.164H36.339a1.1,1.1,0,0,0,1.1-1.1V20.258ZM6.686,31.731a1.1,1.1,0,0,1-2.193,0V30.268a1.1,1.1,0,0,1,2.193,0Zm0-5.849a1.1,1.1,0,1,1-2.193,0V24.42a1.1,1.1,0,0,1,2.193,0Zm4.387,5.849a1.1,1.1,0,0,1-2.193,0V30.268a1.1,1.1,0,0,1,2.193,0Zm0-5.849a1.1,1.1,0,1,1-2.193,0V24.42a1.1,1.1,0,0,1,2.193,0Zm6.494,0a1.1,1.1,0,1,1-2.193,0V24.42a1.1,1.1,0,0,1,2.193,0Zm-2.139-8.339a3.29,3.29,0,1,1,3.29,3.29,3.294,3.294,0,0,1-3.29-3.29Zm6.635,8.339a1.1,1.1,0,0,1-2.193,0V24.42a1.1,1.1,0,0,1,2.193,0Zm6.22,5.849a1.1,1.1,0,0,1-2.193,0V30.268a1.1,1.1,0,0,1,2.193,0Zm0-5.849a1.1,1.1,0,1,1-2.193,0V24.42a1.1,1.1,0,0,1,2.193,0Zm4.387,5.849a1.1,1.1,0,0,1-2.193,0V30.268a1.1,1.1,0,0,1,2.193,0Zm0-5.849a1.1,1.1,0,1,1-2.193,0V24.42a1.1,1.1,0,0,1,2.193,0Zm0,0"/></g></svg>