<svg xmlns="http://www.w3.org/2000/svg" width="35.87" height="36.231" viewBox="0 0 35.87 36.231"><defs><style>.a{fill:#fff;}</style></defs><g transform="translate(0 0)"><path class="a" d="M22.467,143.1a9.983,9.983,0,0,0,0-3.007l2.5-1.958a1.521,1.521,0,0,0,.376-1.943l-1.611-2.79a1.518,1.518,0,0,0-1.872-.646l-2.941,1.185a9.524,9.524,0,0,0-2.6-1.5l-.447-3.14a1.516,1.516,0,0,0-1.495-1.3H11.16a1.516,1.516,0,0,0-1.495,1.3l-.447,3.142a9.557,9.557,0,0,0-2.584,1.5L3.68,132.752a1.519,1.519,0,0,0-1.871.646L.2,136.188a1.515,1.515,0,0,0,.379,1.944l2.493,1.945a9.983,9.983,0,0,0,0,3.007l-2.5,1.958A1.521,1.521,0,0,0,.2,146.985l1.609,2.79a1.521,1.521,0,0,0,1.872.646l2.941-1.185a9.519,9.519,0,0,0,2.6,1.5l.447,3.14a1.519,1.519,0,0,0,1.5,1.3h3.218a1.516,1.516,0,0,0,1.495-1.3l.447-3.142a9.557,9.557,0,0,0,2.584-1.5l2.954,1.185a1.514,1.514,0,0,0,1.871-.646l1.609-2.79a1.515,1.515,0,0,0-.379-1.944Zm-9.7,3.774a5.284,5.284,0,1,1,5.284-5.284A5.29,5.29,0,0,1,12.769,146.87Zm0,0" transform="translate(0 -118.942)"/><path class="a" d="M314.851,8.256a5.722,5.722,0,0,0,.071-.708,5.727,5.727,0,0,0-.071-.708l1.36-1.029a.756.756,0,0,0,.2-.98l-1.221-2.114a.756.756,0,0,0-.947-.318l-1.565.66a5.609,5.609,0,0,0-1.236-.735L311.231.661A.756.756,0,0,0,310.482,0h-2.441a.755.755,0,0,0-.749.661l-.208,1.662a5.631,5.631,0,0,0-1.236.735l-1.565-.66a.755.755,0,0,0-.948.318l-1.22,2.114a.756.756,0,0,0,.2.98l1.36,1.029a5.426,5.426,0,0,0-.072.708,5.728,5.728,0,0,0,.071.708l-1.36,1.03a.755.755,0,0,0-.2.98l1.221,2.114a.755.755,0,0,0,.947.318l1.565-.661a5.609,5.609,0,0,0,1.236.735l.208,1.662a.756.756,0,0,0,.749.663h2.441a.754.754,0,0,0,.749-.661l.208-1.662a5.641,5.641,0,0,0,1.236-.735l1.565.66a.755.755,0,0,0,.948-.318l1.22-2.114a.755.755,0,0,0-.2-.98Zm-5.59,2.311a3.019,3.019,0,1,1,3.019-3.019A3.018,3.018,0,0,1,309.261,10.567Zm0,0" transform="translate(-280.64)"/></g></svg>