<svg xmlns="http://www.w3.org/2000/svg" width="33.328" height="39.948" viewBox="0 0 33.328 39.948"><defs><style>.a{fill:#fff;}</style></defs><g transform="translate(0 0)"><path class="a" d="M96.653,19.243a9.31,9.31,0,0,0,6.8-2.819,9.309,9.309,0,0,0,2.819-6.8,9.311,9.311,0,0,0-2.819-6.8,9.619,9.619,0,0,0-13.606,0,9.31,9.31,0,0,0-2.819,6.8,9.309,9.309,0,0,0,2.819,6.8A9.312,9.312,0,0,0,96.653,19.243Zm0,0" transform="translate(-80.241)"/><path class="a" d="M33.247,258.738a23.763,23.763,0,0,0-.324-2.524,19.886,19.886,0,0,0-.621-2.538,12.535,12.535,0,0,0-1.043-2.367,8.932,8.932,0,0,0-1.573-2.05,6.936,6.936,0,0,0-2.26-1.42,7.81,7.81,0,0,0-2.885-.522,2.928,2.928,0,0,0-1.564.663c-.469.306-1.017.659-1.629,1.05a9.334,9.334,0,0,1-2.108.929,8.185,8.185,0,0,1-5.156,0,9.312,9.312,0,0,1-2.106-.928c-.606-.387-1.155-.741-1.631-1.051a2.924,2.924,0,0,0-1.563-.663,7.8,7.8,0,0,0-2.885.523,6.93,6.93,0,0,0-2.26,1.42,8.933,8.933,0,0,0-1.573,2.05,12.56,12.56,0,0,0-1.043,2.367A19.935,19.935,0,0,0,.4,256.214a23.682,23.682,0,0,0-.324,2.525C.027,259.5,0,260.3,0,261.1a6.633,6.633,0,0,0,1.97,5.018,7.092,7.092,0,0,0,5.077,1.852H26.281a7.09,7.09,0,0,0,5.076-1.852,6.63,6.63,0,0,0,1.97-5.019c0-.8-.027-1.6-.081-2.36Zm0,0" transform="translate(0 -228.02)"/></g></svg>