<svg xmlns="http://www.w3.org/2000/svg" width="36.951" height="32.477" viewBox="0 0 36.951 32.477"><defs><style>.a{fill:#fff;}</style></defs><g transform="translate(0)"><path class="a" d="M211,240h6.5v2.165H211Zm0,0" transform="translate(-195.772 -222.679)"/><path class="a" d="M29.978,91.31h-6.09v1.083a1.082,1.082,0,0,1-1.083,1.083h-8.66a1.082,1.082,0,0,1-1.083-1.083V91.31H6.973a3.244,3.244,0,0,1-3.081-2.22L0,77.41v23.642A3.251,3.251,0,0,0,3.248,104.3H33.7a3.251,3.251,0,0,0,3.248-3.248V77.411L33.059,89.089a3.243,3.243,0,0,1-3.08,2.22Zm0,0" transform="translate(0 -71.824)"/><path class="a" d="M46.752,0h-8.66a3.251,3.251,0,0,0-3.248,3.248V4.33H25.809l4.083,12.251a1.082,1.082,0,0,0,1.028.74h6.09V16.238a1.082,1.082,0,0,1,1.083-1.083h8.66a1.082,1.082,0,0,1,1.083,1.083v1.083h6.09a1.082,1.082,0,0,0,1.028-.74L59.035,4.33H50V3.248A3.251,3.251,0,0,0,46.752,0ZM37.009,4.33V3.248a1.083,1.083,0,0,1,1.083-1.083h8.66a1.083,1.083,0,0,1,1.083,1.083V4.33Zm0,0" transform="translate(-23.946)"/></g></svg>